<?xml version="1.0" encoding="utf-8"?>
<!-- Generator: Adobe Illustrator 20.1.0, SVG Export Plug-In . SVG Version: 6.00 Build 0)  -->
<svg version="1.1" id="_x30_" xmlns="http://www.w3.org/2000/svg" xmlns:xlink="http://www.w3.org/1999/xlink" x="0px" y="0px"
	 viewBox="0 0 403.33 46" style="enable-background:new 0 0 403.33 46;" xml:space="preserve">
<style type="text/css">
	.st0{fill:#00A0E3;}
	.st1{fill:#CCCCCC;}
</style>
<path id="_x32_" class="st0" d="M13.105,43.395c0.198-1.672,0.454-4.563,0.737-8.588c0.312-4.025,0.454-6.888,0.454-8.532
	L0.01,0.765c3.146,0.057,5.754,0.057,7.766,0.057c1.956,0,4.308,0,7.029-0.057c0.822,2.097,1.956,4.592,3.373,7.511
	c1.446,2.891,2.579,5.499,3.486,7.766c2.381-4.252,4.28-7.568,5.754-9.949c1.417-2.381,2.466-4.167,3.09-5.329
	c2.636,0.057,5.187,0.057,7.625,0.057c1.304,0,3.656,0,7.058-0.057L31.5,21.003c-2.721,4.053-4.082,6.151-4.082,6.349l-0.028,0.312
	v0.312l-0.028,0.312l-0.255,4.733c-0.142,3.146-0.283,6.604-0.368,10.374c-2.919-0.057-5.187-0.057-6.774-0.057
	C18.32,43.338,16.024,43.338,13.105,43.395z M39.692,43.395l2.579-4.507L58.399,8.475l1.729-3.401
	c0.482-0.992,1.19-2.438,2.069-4.308c3.656,0.057,6.349,0.057,8.021,0.057c2.919,0,5.641,0,8.163-0.057l4.535,13.038l9.269,25.028
	l1.814,4.563c-3.6-0.057-5.782-0.057-6.548-0.057c-1.729,0-4.308,0-7.71,0.057c-0.907-3.43-2.239-7.483-3.968-12.131H60.071
	c-1.814,3.656-3.685,7.71-5.612,12.131c-3.855-0.057-6.236-0.057-7.114-0.057C45.758,43.338,43.207,43.338,39.692,43.395z
	 M63.841,22.165h9.694c-2.438-7.341-3.741-11.366-3.997-12.131c-1.361,3.061-2.523,5.584-3.458,7.54L63.841,22.165z M134.135,33.049
	c-0.227,1.219-0.539,2.919-0.879,5.074c-0.34,2.183-0.595,3.883-0.709,5.074c-4.45,0.68-8.418,1.02-11.905,1.02
	c-3.373,0-6.519-0.425-9.41-1.247c-2.891-0.85-5.555-2.239-7.993-4.167c-2.409-1.927-4.138-4.195-5.187-6.774
	c-1.02-2.608-1.559-5.527-1.559-8.758c0-3.77,0.709-7.143,2.126-10.147c1.389-3.004,3.401-5.527,6.037-7.511
	c2.636-2.012,5.527-3.458,8.645-4.308C116.448,0.425,119.708,0,123.052,0c3.061,0,6.859,0.397,11.394,1.219l0.085,2.608
	c0.028,1.134,0.085,2.381,0.17,3.77l0.198,3.515c-2.409-0.567-4.393-0.964-5.896-1.162c-1.531-0.198-2.919-0.312-4.195-0.312
	c-2.806,0-5.357,0.567-7.596,1.701s-3.997,2.749-5.3,4.904c-1.275,2.126-1.927,4.507-1.927,7.114c0,2.353,0.539,4.393,1.616,6.094
	c1.077,1.701,2.551,3.004,4.393,3.94c1.842,0.907,4.11,1.389,6.803,1.389c1.474,0,3.09-0.142,4.819-0.368
	C129.345,34.183,131.527,33.73,134.135,33.049z M140.286,43.395l1.219-17.063l0.567-12.415l0.17-5.527
	c0.028-1.616,0.057-3.146,0.057-4.62l-0.028-3.004c3.26,0.057,5.697,0.057,7.313,0.057c1.275,0,3.486,0,6.633-0.057
	c-0.51,5.981-0.85,11.281-0.992,15.844h16.95c0.113-1.701,0.198-4.025,0.312-6.916c0.085-2.919,0.142-4.932,0.142-5.981
	c0-0.567-0.028-1.559-0.057-2.948l7.426,0.057c0.765,0,2.948,0,6.576-0.057c-0.794,10.714-1.304,18.651-1.531,23.866
	c-0.198,5.215-0.312,11.479-0.312,18.764l-6.803-0.057c-0.992,0-3.43,0-7.284,0.057c0.51-4.96,0.85-10.742,1.049-17.318H154.77
	l-0.539,17.318l-7.256-0.057C146.068,43.338,143.857,43.338,140.286,43.395z M201.934,43.395c1.02-10.119,1.644-21.258,1.842-33.418
	l-13.322,0.312l0.17-3.458c0.085-1.842,0.142-3.883,0.17-6.066c5.924,0.057,12.812,0.057,20.663,0.057l7.71-0.028h7.511l4.053-0.028
	l-0.198,3.061c-0.057,1.616-0.113,2.976-0.17,4.053c-0.028,1.049-0.028,1.871-0.028,2.409c-4.45-0.227-8.135-0.312-11.026-0.312
	h-2.182c-0.312,3.656-0.539,7.058-0.709,10.176c-0.255,4.478-0.425,8.815-0.539,13.038c-0.142,4.195-0.198,7.596-0.198,10.204
	c-3.401-0.057-5.584-0.057-6.604-0.057C208.199,43.338,205.789,43.338,201.934,43.395z M233.17,43.395
	c1.19-16.723,1.814-29.591,1.814-38.605l-0.028-4.025c3.628,0.057,6.066,0.057,7.284,0.057c0.567,0,2.806,0,6.718-0.057
	c-0.397,4.677-0.68,9.127-0.935,13.293c-0.283,5.839-0.51,11.281-0.624,16.355c-0.142,5.074-0.198,9.41-0.198,12.982l-6.377-0.057
	C239.576,43.338,237.025,43.338,233.17,43.395z M291.701,33.049c-0.255,1.219-0.539,2.919-0.907,5.074
	c-0.34,2.183-0.567,3.883-0.709,5.074c-4.45,0.68-8.39,1.02-11.905,1.02c-3.345,0-6.491-0.425-9.41-1.247
	c-2.891-0.85-5.555-2.239-7.965-4.167c-2.438-1.927-4.167-4.195-5.187-6.774c-1.049-2.608-1.559-5.527-1.559-8.758
	c0-3.77,0.709-7.143,2.097-10.147c1.389-3.004,3.43-5.527,6.066-7.511c2.608-2.012,5.499-3.458,8.645-4.308
	C274.014,0.425,277.245,0,280.59,0c3.09,0,6.888,0.397,11.423,1.219l0.057,2.608c0.028,1.134,0.113,2.381,0.17,3.77l0.227,3.515
	c-2.438-0.567-4.393-0.964-5.924-1.162c-1.502-0.198-2.891-0.312-4.195-0.312c-2.806,0-5.329,0.567-7.568,1.701
	s-4.025,2.749-5.3,4.904c-1.304,2.126-1.956,4.507-1.956,7.114c0,2.353,0.567,4.393,1.644,6.094c1.077,1.701,2.523,3.004,4.365,3.94
	c1.842,0.907,4.11,1.389,6.831,1.389c1.446,0,3.061-0.142,4.79-0.368C286.911,34.183,289.065,33.73,291.701,33.049z"/>
<path id="_x31_" class="st1" d="M297.765,43.296c0.201-3.238,0.354-7.19,0.429-11.111l6.33,0.094c0.68,0,2.458-0.032,5.347-0.094
	c-0.167,2.228-0.346,5.932-0.554,11.111l-5.347-0.063C303.583,43.233,301.511,43.253,297.765,43.296z M333.748,37.706
	c-0.074,0.572-0.243,1.628-0.506,3.162l-0.55,3.44c-2.252,0.558-4.46,0.836-6.61,0.836c-1.563,0-2.934-0.162-4.115-0.47
	c-1.387-0.374-2.642-1.034-3.741-1.98c-1.137-0.976-1.959-2.127-2.48-3.462c-0.616-1.563-0.924-3.309-0.924-5.245
	c0-1.776,0.3-3.485,0.902-5.135c0.602-1.651,1.497-3.009,2.67-4.072c1.174-1.07,2.479-1.783,3.917-2.149
	c1.431-0.367,3.015-0.551,4.754-0.551c1.013,0,2.039,0.052,3.074,0.162c1.034,0.11,2.31,0.353,3.83,0.719l0.044,0.491
	c0.037,0.514,0.073,1.042,0.095,1.577c0.014,0.535,0.066,1.379,0.132,2.539l0.124,1.907c-2.047-0.704-3.859-1.056-5.436-1.056
	c-1.129,0-2.128,0.22-2.978,0.652c-0.851,0.433-1.483,1.064-1.893,1.886c-0.403,0.822-0.609,1.776-0.609,2.861
	c0,1.1,0.183,2.017,0.55,2.758c0.367,0.748,0.946,1.306,1.753,1.673c0.8,0.374,1.68,0.558,2.641,0.558
	c0.492,0,1.064-0.051,1.732-0.154c0.667-0.095,1.247-0.213,1.746-0.331C332.361,38.197,332.985,37.992,333.748,37.706
	L333.748,37.706z M350.488,22.08c1.783,0,3.492,0.272,5.136,0.814c1.643,0.551,3.03,1.329,4.159,2.355
	c1.137,1.027,1.974,2.223,2.51,3.595c0.535,1.364,0.807,2.839,0.807,4.416c0,1.533-0.243,2.986-0.719,4.372
	c-0.484,1.38-1.299,2.677-2.442,3.888c-1.152,1.211-2.612,2.12-4.38,2.721c-1.767,0.602-3.646,0.903-5.627,0.903
	c-1.819,0-3.573-0.264-5.252-0.792c-1.672-0.535-3.081-1.306-4.203-2.325c-1.13-1.02-1.974-2.237-2.539-3.653
	c-0.565-1.416-0.851-2.913-0.851-4.468c0-1.563,0.279-3.059,0.829-4.475c0.55-1.416,1.423-2.693,2.627-3.822
	c1.195-1.137,2.677-2.003,4.438-2.612C346.747,22.388,348.581,22.08,350.488,22.08L350.488,22.08z M350.342,28.419
	c-0.917,0-1.739,0.234-2.458,0.704c-0.711,0.477-1.254,1.166-1.621,2.069c-0.367,0.909-0.55,1.899-0.55,2.97
	c0,1.57,0.396,2.773,1.181,3.61c0.792,0.836,1.783,1.254,2.971,1.254c0.903,0,1.716-0.242,2.436-0.719
	c0.711-0.477,1.254-1.189,1.621-2.12c0.367-0.939,0.55-1.936,0.55-3.015c0-0.88-0.147-1.68-0.432-2.399
	c-0.287-0.711-0.756-1.284-1.408-1.709C351.978,28.632,351.215,28.419,350.342,28.419L350.342,28.419z M366.313,44.573l0.616-10.366
	l0.352-8.114l0.044-3.485c1.577,0.03,2.963,0.045,4.167,0.045c1.364,0,2.684-0.015,3.976-0.045l-0.155,2.89
	c0.44-0.572,0.822-1.019,1.13-1.32c0.301-0.308,0.682-0.601,1.122-0.888c0.448-0.279,0.903-0.499,1.379-0.66
	c0.47-0.169,1.005-0.301,1.592-0.404c0.587-0.095,1.203-0.147,1.842-0.147c0.734,0,1.408,0.059,2.025,0.184
	c0.616,0.118,1.145,0.271,1.592,0.462c0.44,0.183,0.83,0.396,1.159,0.646c0.329,0.242,0.616,0.513,0.865,0.822
	c0.257,0.308,0.544,0.755,0.873,1.342c0.631-0.91,1.291-1.607,1.996-2.084c0.696-0.469,1.497-0.814,2.391-1.042
	c0.895-0.22,1.812-0.331,2.759-0.331c1.239,0,2.413,0.176,3.514,0.535c1.1,0.36,2.01,0.976,2.715,1.864
	c0.711,0.88,1.064,2.017,1.064,3.425c0,0.653-0.045,1.651-0.141,2.986c-0.088,1.329-0.213,3.617-0.374,6.859
	c-0.162,3.243-0.249,5.517-0.264,6.823c-1.32-0.029-2.596-0.044-3.83-0.044c-1.504,0-3.074,0.014-4.725,0.044
	c0.14-1.819,0.279-4.101,0.418-6.844c0.146-2.744,0.212-4.644,0.212-5.7c0-0.924-0.102-1.621-0.315-2.076
	c-0.213-0.454-0.484-0.763-0.814-0.931c-0.331-0.168-0.697-0.249-1.093-0.249c-0.419,0-0.786,0.081-1.101,0.235
	c-0.337,0.175-0.631,0.44-0.888,0.8c-0.337,0.476-0.616,1.078-0.822,1.797c-0.176,0.565-0.308,1.416-0.403,2.575
	c-0.103,1.174-0.184,2.721-0.242,4.636l-0.176,5.759c-1.541-0.029-2.934-0.044-4.167-0.044c-1.269,0-2.759,0.014-4.475,0.044
	c0.132-1.277,0.279-3.418,0.448-6.426c0.176-3.007,0.256-5.018,0.256-6.03c0-0.859-0.08-1.504-0.256-1.93
	c-0.168-0.433-0.41-0.77-0.726-1.027c-0.308-0.258-0.719-0.389-1.24-0.389c-0.557,0-1.049,0.162-1.467,0.491
	c-0.418,0.331-0.778,0.8-1.071,1.416c-0.293,0.617-0.506,1.468-0.623,2.546c-0.124,1.078-0.235,2.729-0.323,4.945
	c-0.095,2.223-0.154,4.358-0.183,6.404c-1.731-0.029-3.133-0.044-4.211-0.044C369.547,44.529,368.073,44.543,366.313,44.573
	L366.313,44.573z"/>
</svg>
